<svg xmlns="http://www.w3.org/2000/svg" x="0px" y="0px" width="96" height="96" viewBox="0 0 224 224" style=" fill:#000000;">
  <g transform="translate(1.904,1.904) scale(0.983,0.983)">
    <g fill="none" fill-rule="nonzero" stroke="none" stroke-width="none" stroke-linecap="butt" stroke-linejoin="none" stroke-miterlimit="10" stroke-dasharray="" stroke-dashoffset="0" font-family="none" font-weight="none" font-size="none" text-anchor="none" style="mix-blend-mode: normal">
      <g stroke="#000000" stroke-width="4" stroke-linejoin="round">
        <g id="surface1 1">
          <path d="M196,93.33333l-84,-42.21875l-84,42.21875v-23.55208l84,-42l84,42z" fill="#e53935"></path>
          <path d="M42,98h140v88.66667h-140z" fill="#d32f2f"></path>
          <path d="M93.33333,177.33333c0,-10.29948 8.33073,-18.66667 18.66667,-18.66667c10.33594,0 18.66667,8.36719 18.66667,18.66667c0,10.29948 -8.33073,18.66667 -18.66667,18.66667c-10.33594,0 -18.66667,-8.36719 -18.66667,-18.66667z" fill="#d32f2f"></path>
          <path d="M102.66667,177.35156c0,-5.15885 4.17448,-9.35156 9.33333,-9.35156c5.15886,0 9.33333,4.19271 9.33333,9.35156c0,5.14063 -4.17448,9.31511 -9.33333,9.31511c-5.15886,0 -9.33333,-4.17448 -9.33333,-9.31511z" fill="#4c0808"></path>
          <path d="M172.66667,105.34636v71.98698h-121.33333v-71.98698l4.66667,-16.67969l51.33333,9.33333h9.33333l51.33333,-9.33333z" fill="#bcaaa4"></path>
          <path d="M172.66667,168c0,0 -56,-0.67448 -56,9.33333c0,0 0,-69.32552 0,-79.33333c0,-10.00781 56,-9.33333 56,-9.33333z" fill="#e5e2e1"></path>
          <path d="M51.33333,88.66667c0,0 56,-0.67448 56,9.33333c0,10.00781 0,79.33333 0,79.33333c0,-10.00781 -56,-9.33333 -56,-9.33333z" fill="#e5e2e1"></path>
        </g>
      </g>
      <path d="M0,224v-224h224v224z" fill="none" stroke="none" stroke-width="1" stroke-linejoin="miter"></path>
      <g stroke="none" stroke-width="1" stroke-linejoin="miter">
        <g id="surface1">
          <path d="M196,93.33333l-84,-42.21875l-84,42.21875v-23.55208l84,-42l84,42z" fill="#e53935"></path>
          <path d="M42,98h140v88.66667h-140z" fill="#d32f2f"></path>
          <path d="M93.33333,177.33333c0,-10.29948 8.33073,-18.66667 18.66667,-18.66667c10.33594,0 18.66667,8.36719 18.66667,18.66667c0,10.29948 -8.33073,18.66667 -18.66667,18.66667c-10.33594,0 -18.66667,-8.36719 -18.66667,-18.66667z" fill="#d32f2f"></path>
          <path d="M102.66667,177.35156c0,-5.15885 4.17448,-9.35156 9.33333,-9.35156c5.15886,0 9.33333,4.19271 9.33333,9.35156c0,5.14063 -4.17448,9.31511 -9.33333,9.31511c-5.15886,0 -9.33333,-4.17448 -9.33333,-9.31511z" fill="#4c0808"></path>
          <path d="M168,88.66667l-51.33333,9.33333h-9.33333l-51.33333,-9.33333l-4.66667,16.67969v71.98698h121.33333v-71.98698z" fill="#bcaaa4"></path>
          <path d="M172.66667,88.66667c0,0 -56,-0.67448 -56,9.33333c0,10.00781 0,79.33333 0,79.33333c0,-10.00781 56,-9.33333 56,-9.33333z" fill="#e5e2e1"></path>
          <path d="M51.33333,88.66667c0,0 56,-0.67448 56,9.33333c0,10.00781 0,79.33333 0,79.33333c0,-10.00781 -56,-9.33333 -56,-9.33333z" fill="#e5e2e1"></path>
        </g>
      </g>
      <path d="" fill="none" stroke="none" stroke-width="1" stroke-linejoin="miter"></path>
      <path d="" fill="none" stroke="none" stroke-width="1" stroke-linejoin="miter"></path>
    </g>
  </g>
</svg>
